<svg xmlns="http://www.w3.org/2000/svg" xml:space="preserve" width="512" height="512" viewBox="0 0 32 32" fill="#444444"><path d="M8.5 10h-2a.5.5 0 0 1 0-1h2a.5.5 0 0 1 0 1zM7 11.5a.5.5 0 0 0 .5.5h2a.5.5 0 0 0 0-1h-2a.5.5 0 0 0-.5.5zm.5 6.5h2a.5.5 0 0 0 0-1h-2a.5.5 0 0 0 0 1zm-1 2h2a.5.5 0 0 0 0-1h-2a.5.5 0 0 0 0 1zM22 13.5a.5.5 0 0 1-.5.5h-13a.5.5 0 0 1 0-1h13a.5.5 0 0 1 .5.5zM8.5 16h13a.5.5 0 0 0 0-1h-13a.5.5 0 0 0 0 1zm8-4h-5a.5.5 0 0 1 0-1h5a.5.5 0 0 1 0 1zm4-3h-10a.5.5 0 0 0 0 1h10a.5.5 0 0 0 0-1zM29 4H3a3 3 0 0 0-3 3v16a3 3 0 0 0 3 3h9v3h-1.5a.5.5 0 0 0 0 1h11a.5.5 0 0 0 0-1H20v-3h9a3 3 0 0 0 3-3V7a3 3 0 0 0-3-3zM19 29h-6v-3h6v3zm12-6a2 2 0 0 1-2 2H3a2 2 0 0 1-2-2V7a2 2 0 0 1 2-2h26a2 2 0 0 1 2 2v16z"/></svg>