<svg xmlns="http://www.w3.org/2000/svg" width="512" height="512" version="1.0" viewBox="0 0 1024 1024" fill="#444444"><path d="M105.5 33.4c-3.7 1.6-7 5.2-8.4 8.9-.7 1.8-1.1 15.2-1.1 37.1v34.2l-5.2 1.3c-8.2 2-20.7 8.4-28.6 14.6-22 17.2-33.6 46.9-29.1 74.5 2.7 17 9.8 30.8 22.1 43.3l8.6 8.9-6.9 6.5c-33.1 31.2-33 83.4.1 114.7l7 6.6-7 6.6a78.61 78.61 0 0 0 0 114.8l7 6.6-7 6.6a78.61 78.61 0 0 0 0 114.8l7 6.6-7 6.6c-33.1 31.3-33.2 83.5-.1 114.7l7 6.6-8.3 8.3c-12.4 12.5-19.8 26.7-22.5 43.8-6.2 38.1 17.4 76.4 54.1 87.8l8.7 2.7.3 35.7c.3 34.2.4 35.8 2.4 38.4 1.1 1.5 3.3 3.7 4.8 4.8l2.7 2.1h747.8l2.7-2.1c1.5-1.1 3.7-3.3 4.8-4.8l2.1-2.7V553.1l-2.1-2.7c-3.5-4.7-7-6.7-12.6-7.2-5.9-.4-10.2 1.7-14.2 7.1l-2.1 2.8-.3 203.5L832 960h-32l-.2-147.9-.3-148-2.1-2.8c-7.3-9.8-19.5-9.8-26.8 0l-2.1 2.8-.3 148L768 960H128l-.2-66.9c-.3-65.8-.3-67-2.4-69.7-3.9-5.3-7.1-6.9-13.4-6.9-6.3 0-9.5 1.6-13.4 6.9-2 2.6-2.1 4.5-2.6 28.2l-.5 25.5-5.5-2.8c-7.7-3.8-16.9-13.3-20.8-21.4-8.8-18.3-5.7-38.6 8.1-53.5 18.1-19.6 48-20.5 67.5-2.1 9.1 8.7 13.7 18.5 15.1 32.4.9 9 2.3 11.8 7.5 15.7 3.9 2.9 13.3 2.9 17.2 0 7-5.1 8.6-11.6 6.4-25.2-4.7-29-24.5-53.3-51.5-63.1-4.7-1.7-9.3-3.1-10.1-3.1-1.2 0-1.4-6.7-1.4-47.5V659l3.5 1.4c14.3 6 25.5 21 27.7 36.8.5 4 1.2 8.9 1.5 10.8.6 4.6 6.7 10.6 11.6 11.5 5.2 1 10.1-.1 13.8-3.2 6-5.1 7.2-12.3 4.5-26.5-5.4-28-24.9-51.2-51.1-60.7-4.7-1.7-9.3-3.1-10.1-3.1-1.2 0-1.4-6.7-1.4-47.5V531l3.5 1.4c14.3 6 25.5 21 27.7 36.8.5 4 1.2 8.9 1.5 10.8.6 4.6 6.7 10.6 11.6 11.5 5.2 1 10.1-.1 13.8-3.2 6-5.1 7.2-12.3 4.5-26.5-5.4-28-24.9-51.2-51.1-60.7-4.7-1.7-9.3-3.1-10.1-3.1-1.2 0-1.4-6.7-1.4-47.5V403l3.5 1.4c14.3 6 25.5 21 27.7 36.8.5 4 1.2 8.9 1.5 10.8.6 4.6 6.7 10.6 11.6 11.5 5.2 1 10.1-.1 13.8-3.2 6-5.1 7.2-12.3 4.5-26.5-5.4-28-24.9-51.2-51.1-60.7-4.7-1.7-9.3-3.1-10.1-3.1-1.2 0-1.4-6.7-1.4-47.5V275l3.5 1.4c14.3 6 25.5 21 27.7 36.8.5 4 1.2 8.9 1.5 10.8.6 4.6 6.7 10.6 11.6 11.5 5.2 1 10.1-.1 13.8-3.2 6-5.1 7.2-12.3 4.5-26.5-5.9-30.7-28.4-55.1-58.2-63l-4.3-1.2-.3-27.7c-.3-26.2-.4-27.9-2.4-30.5-3.9-5.3-7.1-6.9-13.4-6.9-6.3 0-9.5 1.6-13.4 6.9-2 2.6-2.1 4.5-2.6 28.2l-.5 25.5-5.5-2.8c-7.7-3.8-16.9-13.3-20.8-21.4-9-18.9-5.5-39.8 9.1-54.4 18.9-18.8 47.2-19.3 66.5-1.2 9.1 8.7 13.7 18.5 15.1 32.4.9 9 2.3 11.8 7.5 15.7 3.9 2.9 13.3 2.9 17.2 0 7-5.1 8.6-11.6 6.4-25.2-4.6-29-24.6-53.3-51.5-63.1-4.7-1.7-9.3-3.1-10.1-3.1-1.2 0-1.4-3.8-1.4-25V64h640v129.5l2.3 3.9c6.1 10.9 22.1 10.6 27.7-.5 1.9-3.6 2-6 2-52.4V96H831.7l1.1 3.8c.6 2.1 2.7 5.3 4.6 7.1 4.8 4.7 12.4 5.5 18.5 2 6.7-3.8 8.3-8.4 7.9-22.8-.3-12.9-1.1-15-7.2-19.5-2.6-2-4.3-2.1-29.6-2.4l-26.8-.3-.4-10.9c-.3-11.7-1.2-14-7.2-18.4l-2.7-2.1-340.7-.2c-282.4-.2-341.2 0-343.7 1.1zm-9.7 309.1-.3 22.6-5.3-2.7c-19.4-9.7-30.1-33-24.7-53.9 3.5-13.1 13.7-25.9 25-31.1l5-2.4.3 22.5c.1 12.4.1 32.6 0 45zm0 128-.3 22.6-5.3-2.7c-19.4-9.7-30.1-33-24.7-53.9 3.5-13.1 13.7-25.9 25-31.1l5-2.4.3 22.5c.1 12.4.1 32.6 0 45zm0 128-.3 22.6-5.3-2.7c-19.4-9.7-30.1-33-24.7-53.9 3.5-13.1 13.7-25.9 25-31.1l5-2.4.3 22.5c.1 12.4.1 32.6 0 45zm0 128-.3 22.6-5.3-2.7c-19.4-9.7-30.1-33-24.7-53.9 3.5-13.1 13.7-25.9 25-31.1l5-2.4.3 22.5c.1 12.4.1 32.6 0 45z"/><path d="M441.5 97.4c-10.1 4.4-12.5 17.8-4.6 25.7 11.2 11.3 29.6 1.2 26.7-14.6-1.8-9.4-13.1-15.1-22.1-11.1zM344 124.2c-7.6 5.2-9.9 13.1-6.1 20.7 5.8 11.2 21.6 11.6 27.9.6 5.9-10.3-1.8-23.5-13.8-23.5-3.2 0-5.7.7-8 2.2zM536 124.2c-7.2 5-9.5 11.6-6.5 19.4 4.6 12.2 21.7 13.3 28.2 1.8 2.9-4.9 2.9-10.6.2-15.4-4.3-7.6-15.1-10.4-21.9-5.8zM898.5 129.1c-6.6 1.3-17 4.7-22 7.2-12 6-24.1 16.8-31.2 27.9-3.3 5.1-247.2 427.1-251.1 434.4-1.7 3.2-26.5 177.2-25.7 181.1.8 4.4 5.7 9.9 10.2 11.4 4.7 1.5 10.9.6 14.7-2.2 7.1-5.2 137.4-107.9 138.3-109.1.6-.7 32-54.8 69.9-120.3l68.8-119 .1-6.5c0-7.7-1.8-10.9-8.1-14-8.4-4.2-16.2-1.4-21.7 7.6-1.9 3.3-31 53.6-64.7 111.9-33.6 58.3-61.5 106.4-62 106.9s-6.5-2.3-14.4-6.8c-12.8-7.3-13.5-7.9-12.4-9.9 1.6-3.2 179.7-311.8 181.4-314.4 1.4-2.2 1.4-2.2 14.9 5.5 7.4 4.2 13.5 8 13.5 8.5 0 .4-5.3 9.8-11.7 20.9-13.7 23.7-14.8 26.3-13.2 32.1 3.1 11.6 17.3 15.9 25.9 7.9 3.8-3.6 85.7-145.7 88.8-154.1 6.8-18.7 6.8-37 0-55.9-8.9-24.5-29.1-42.6-55.8-49.9-6.8-1.8-25.8-2.5-32.5-1.2zm24.8 32.4c18 4.7 32 19.3 35.8 37.2 1.4 6.9.7 18-1.6 24.3-.9 2.5-3.9 8.6-6.7 13.7l-5.1 9.2-4.6-2.7c-2.6-1.5-21.2-12.2-41.4-23.7-20.1-11.6-36.6-21.4-36.7-21.8-.1-2.5 11.5-19.9 16.2-24.3 12-11.4 28.8-15.9 44.1-11.9zM888 249.7c22.6 13 41 23.9 41 24.3 0 .8-13.8 25-15 26.3-.9 1.1-82.5-46-82.5-47.6 0-1.3 14.3-26.7 15.1-26.7.2 0 18.9 10.6 41.4 23.7zm-55.2 42 9.2 5.4-3.2 5.8C806.6 359.3 658.3 615 657.8 615c-1.2 0-25.8-14.1-26.4-15.2-.3-.4 40.8-72.4 91.2-159.8l91.8-159 4.6 2.7c2.5 1.4 8.7 5 13.8 8zM656 651.5c18.4 10.6 33.5 19.8 33.5 20.4 0 .5-5.8 5.5-12.9 11-11.9 9.4-13 10.1-15 8.8-1.1-.7-11.8-6.9-23.6-13.7-11.8-6.8-21.6-12.4-21.7-12.4-.2-.2 3.1-24 4.2-30.4.3-1.7.9-3.2 1.3-3.2s15.8 8.8 34.2 19.5zm-32.5 55.1c6.3 3.6 11.7 6.9 12 7.4.3.5-6.1 6.1-14.2 12.5s-14.9 11.2-15.1 10.6c-.2-.5.8-8.9 2.2-18.6 1.4-9.8 2.6-17.9 2.6-18.1 0-.9 1.6-.1 12.5 6.2zM434.5 160.6c-64.9 7.1-115.4 53.6-128.1 117.9-2.5 12.4-2.5 38.6 0 51 5.6 28.7 18 52.8 37.8 74 6.7 7.1 7.8 8.8 7.8 11.8 0 3.3-.3 3.7-5.5 6.1-7.2 3.3-16.4 12.1-20.4 19.5-7.8 14.8-8 30.5-.5 45.3 3.5 6.9 13.5 16.8 20.5 20.2l5.6 2.7.6 9.2c2.8 41.5 31.8 76.2 72.6 86.8 4.2 1.1 12.6 2.3 18.6 2.6 52 2.6 96.7-37.3 100.2-89.4l.6-9.2 5.4-2.7c11.7-5.7 21.3-17.8 24.8-30.9 5.4-21-5-43.7-24.8-54-5.2-2.8-5.7-3.3-5.7-6.4 0-2.8 1.2-4.6 7.3-11 42.3-44.5 52.5-107.4 26.2-162.6-5.3-11.2-7.7-14.2-12.9-16.6-5.3-2.4-8-2.4-13.2.2-4.9 2.3-8 6.7-8.9 12.4-.5 3.4.1 5.4 4.1 13.5 8.7 17.7 12.2 30.7 13.1 48.6 1.7 32.6-12.7 66.2-37.8 88.5-4 3.5-7.8 7.8-8.5 9.6-.8 1.8-1.4 6.6-1.4 10.8v7.5h-7c-3.8 0-7-.3-7-.8 0-.4 3.2-29.3 7.1-64.2 3.8-34.9 6.8-64.9 6.4-66.7-1.2-6.4-8.5-12.3-15.2-12.3-1.5 0-13 3.4-25.5 7.6l-22.8 7.6-22.8-7.6c-12.5-4.2-24-7.6-25.5-7.6-6.7 0-14 5.9-15.2 12.3-.4 1.8 2.6 31.8 6.4 66.7 3.9 34.9 7.1 63.8 7.1 64.2 0 .5-3.1.8-7 .8h-7v-7.4c0-4.1-.5-8.7-1.1-10.3-.5-1.5-5.6-7.3-11.3-12.8-11.7-11.4-17.8-19.5-24.1-32.2-14.2-28.7-15.2-63.1-2.6-93.4 10.3-24.7 33.5-48 58.5-58.6 31.8-13.5 64.4-12.2 97.5 4.1 10.5 5.1 12.7 5.4 18.8 2.6 10.2-4.6 12.2-18.5 3.8-25.9-7.6-6.6-29.6-15.4-47.9-19.2-9.8-2-32.3-3.2-41.1-2.3zM448 320c1.4 0 8.5-2 15.8-4.4 11.6-3.9 13.2-4.3 13.2-2.7 0 1-2.5 24-5.5 51.1s-5.5 49.9-5.5 50.7c0 1-3.6 1.3-17.8 1.3h-17.8l-5.7-51.8c-3.2-28.4-5.7-52-5.7-52.4 0-.4 5.9 1.3 13.2 3.8 7.3 2.4 14.4 4.4 15.8 4.4zm88.6 130.6c5.3 3.9 6.9 7.1 6.9 13.4 0 6.3-1.6 9.5-6.9 13.4-2.7 2.1-3.7 2.1-86.4 2.4-56.9.2-84.9 0-87.4-.8-10.1-2.9-14-16.8-7.1-25.1 5.2-6.1 1-5.9 93.5-5.6 83.8.2 84.7.2 87.4 2.3zM512 515.2c-.1 6.7-3.1 17.6-7.2 25.8-8.4 16.7-25.4 29.8-43.8 33.6-27.7 5.8-57.5-8.5-69.9-33.7-4-8.2-7-19.1-7.1-25.7V512h128v3.2zM276 193.1c-6 2.4-10 8.5-10 15.2 0 11.7 13.3 19.3 23.5 13.5 5.3-3.1 9-10.1 8-15.6-1.7-10.5-12.1-16.8-21.5-13.1zM606.7 194c-10.8 5.9-11 21.6-.2 27.8 10.3 5.9 23.5-1.8 23.5-13.8 0-11.8-13-19.6-23.3-14zM249.5 289.4c-10.1 4.4-12.5 17.8-4.6 25.7 11.2 11.3 29.6 1.2 26.7-14.6-1.8-9.4-13.1-15.1-22.1-11.1zM633.5 289.4c-10.1 4.4-12.5 17.8-4.6 25.7 11.2 11.3 29.6 1.2 26.7-14.6-1.8-9.4-13.1-15.1-22.1-11.1zM276 385.1c-6 2.4-10 8.5-10 15.2 0 11.4 12.6 19 22.9 13.8 7.9-4.1 10.9-12.9 6.9-20.9-3.7-7.5-12.3-11.1-19.8-8.1zM606.5 386.2c-11 6.3-10.6 22.1.6 27.9 10.5 5.3 22.9-2.4 22.9-14.1 0-12-13.2-19.7-23.5-13.8zM306 545.5c-17.9 4-34.8 17.2-42.9 33.5-6.8 13.8-7.2 17.7-6.9 61 .3 36.4.4 38 2.4 40.6 3.9 5.3 7.1 6.9 13.4 6.9 6.3 0 9.5-1.6 13.4-6.9 2-2.6 2.1-4.3 2.6-41.9l.5-39.2 2.5-5c5.3-10.7 14.3-16.7 27.6-18.4 11.9-1.5 16.9-6.2 16.9-16.1 0-6.3-1.6-9.5-6.8-13.4-3.5-2.6-13.7-3.1-22.7-1.1zM329.5 673.4c-1.6.8-18.6 17.1-37.7 36.2-30.1 30.3-34.7 35.4-35.3 38.6-1 5.4.1 10.2 3.2 13.9 5.2 6.1 2.4 5.9 82.8 5.9H416v128H288.1l-.3-42.9c-.3-41.6-.4-43-2.4-45.7-3.9-5.3-7.1-6.9-13.4-6.9-6.3 0-9.5 1.6-13.4 6.9-2.1 2.7-2.1 3.8-2.1 56.6 0 52.8 0 53.9 2.1 56.6 1.1 1.5 3.3 3.7 4.8 4.8 2.7 2.1 3.7 2.1 86.4 2.4 54.8.2 84.9-.1 87.2-.7 2.7-.8 11.8-9.4 38.7-36.3C505.4 861 511 855 511.5 852c.3-1.9.5-40.9.3-86.7-.3-82.2-.3-83.2-2.4-85.9-1.1-1.5-3.3-3.7-4.8-4.8-2.7-2.1-3.6-2.1-87.4-2.3-69.8-.2-85.2 0-87.7 1.1zm112 46.6-16 16h-115l16-16 16-16h115l-16 16zM464 857.5l-16 16v-115l15.8-15.8 15.7-15.7.3 57.2.2 57.3-16 16zM649.5 785.4c-3.7 1.7-7 5.2-8.4 8.9-.7 1.7-1.1 11.2-1.1 23.1 0 14.7-.4 21.7-1.5 25.9-4.1 15.9-14.5 27.4-30.8 34-4.9 2.1-7.3 2.2-45.4 2.7-38.6.5-40.3.6-42.9 2.6-5.3 3.9-6.9 7.1-6.9 13.4 0 6.3 1.6 9.5 6.9 13.4 2.7 2 3.9 2.1 43.9 2.1 44.1 0 44.4 0 58.9-5.5 7.8-2.9 19.1-10.5 26.2-17.6 7.1-7.1 14.7-18.4 17.6-26.2 5.2-13.7 5.5-16.3 5.5-42.9 0-23.8-.1-25.3-2.1-27.9-1.1-1.5-3.2-3.7-4.6-4.7-3.4-2.5-11.3-3.2-15.3-1.3z"/></svg>